<?xml version="1.0" standalone="no"?>
<!DOCTYPE svg PUBLIC "-//W3C//DTD SVG 20010904//EN"
 "http://www.w3.org/TR/2001/REC-SVG-20010904/DTD/svg10.dtd">
<svg version="1.0" xmlns="http://www.w3.org/2000/svg"
 width="459.000000pt" height="459.000000pt" viewBox="0 0 459.000000 459.000000"
 preserveAspectRatio="xMidYMid meet">
<metadata>
Created by potrace 1.11, written by Peter Selinger 2001-2013
</metadata>
<g transform="translate(0.000000,459.000000) scale(0.100000,-0.100000)"
fill="#000000" stroke="none">
<path d="M2174 4563 c5 -12 3 -13 -7 -5 -9 8 -26 8 -57 1 -24 -5 -57 -7 -74
-4 -18 3 -24 2 -14 -3 14 -6 9 -12 -30 -32 -42 -22 -84 -48 -133 -82 -10 -6
-21 -11 -25 -10 -5 0 -17 -4 -28 -10 -14 -8 -17 -7 -13 4 2 7 10 12 16 11 6
-2 11 2 11 8 0 5 4 8 9 4 5 -3 12 -1 16 5 3 5 -1 10 -9 10 -9 0 -16 5 -16 11
0 5 4 8 9 4 6 -3 15 3 21 14 16 30 -4 33 -26 4 -10 -15 -24 -31 -30 -38 -6 -6
-14 -20 -18 -32 -4 -11 -17 -24 -29 -28 -12 -4 -25 -8 -29 -10 -5 -1 -13 -3
-19 -4 -5 0 -7 -7 -3 -13 5 -10 4 -10 -6 -1 -11 10 -11 16 3 31 9 10 17 24 17
30 0 6 10 18 22 26 12 9 18 16 13 16 -6 0 -26 -14 -45 -30 -19 -16 -31 -30
-26 -30 5 0 2 -8 -7 -18 -10 -10 -14 -23 -10 -28 4 -5 2 -4 -5 2 -7 6 -14 21
-15 33 -1 11 -4 21 -8 21 -10 0 -39 -36 -39 -48 0 -6 -7 -9 -15 -5 -10 3 -15
0 -13 -8 2 -8 -3 -13 -9 -11 -15 2 -17 -14 -3 -23 6 -3 10 -12 10 -18 0 -8 -3
-8 -9 1 -4 7 -14 14 -22 16 -8 1 -25 8 -37 15 -13 7 -26 10 -29 8 -3 -3 13
-15 35 -26 23 -11 44 -26 48 -32 4 -8 3 -9 -4 -5 -7 4 -12 2 -12 -3 0 -6 -7
-11 -16 -11 -10 0 -14 6 -11 14 4 10 1 13 -9 9 -7 -3 -14 -10 -14 -17 0 -6 -4
-5 -9 3 -10 15 -27 18 -153 27 -55 4 -78 2 -78 -6 0 -7 -8 -9 -20 -5 -11 3
-20 2 -20 -2 0 -5 38 -9 85 -9 58 0 89 -4 98 -13 10 -11 9 -13 -4 -8 -11 4
-16 0 -15 -11 1 -10 -10 -19 -29 -23 -28 -6 -28 -7 -5 -9 14 -1 31 -2 38 -1 6
1 12 -4 12 -12 0 -7 -10 -13 -22 -14 -51 -1 -59 -3 -52 -15 5 -8 2 -9 -10 -5
-12 5 -16 3 -14 -5 6 -17 -19 -41 -34 -33 -7 4 -5 0 4 -8 16 -13 16 -15 -5
-37 l-22 -23 27 16 c16 10 28 13 28 8 0 -11 -39 -26 -57 -23 -7 2 -13 -2 -13
-8 0 -5 8 -10 18 -10 14 0 14 -2 3 -9 -8 -5 -11 -16 -8 -24 4 -10 -1 -18 -13
-22 -10 -3 -17 -12 -14 -19 3 -7 -1 -20 -9 -27 -7 -8 -12 -20 -9 -27 2 -6 -2
-12 -8 -12 -7 0 -10 -7 -7 -14 4 -10 1 -13 -9 -9 -8 3 -14 2 -13 -3 4 -22 -3
-35 -33 -65 -18 -18 -25 -26 -14 -19 10 8 25 15 33 16 12 2 12 0 1 -14 -10
-12 -10 -14 0 -8 9 6 11 1 8 -18 -3 -14 -8 -31 -12 -38 -6 -9 -3 -9 9 1 27 21
20 5 -13 -31 l-30 -33 22 -8 c15 -6 18 -11 10 -14 -10 -4 -10 -8 -1 -19 9 -11
8 -15 -5 -20 -9 -3 -16 -10 -16 -15 0 -4 7 -6 15 -3 20 8 19 -3 -5 -36 -15
-21 -17 -30 -8 -33 10 -4 10 -6 0 -6 -10 -1 -9 -5 3 -17 13 -14 14 -18 3 -25
-7 -5 -13 -12 -14 -16 0 -4 -4 -16 -8 -26 -5 -9 -6 -26 -3 -37 3 -13 -1 -21
-13 -25 -14 -5 -17 -12 -11 -33 4 -15 2 -45 -5 -69 -7 -22 -10 -44 -7 -47 6
-6 14 -124 14 -191 -1 -58 -5 -79 -16 -87 -6 -5 -5 -8 2 -8 9 0 8 -11 -3 -42
-11 -32 -12 -43 -2 -49 9 -5 9 -17 2 -41 -10 -35 -7 -81 4 -74 4 2 5 -16 3
-41 -2 -31 0 -43 8 -39 7 5 9 1 5 -8 -7 -19 15 -116 26 -116 5 0 7 -8 6 -17
-2 -10 2 -21 8 -25 6 -4 11 -11 11 -15 1 -4 6 -18 13 -29 6 -12 14 -40 18 -63
4 -23 11 -44 16 -47 5 -3 1 -13 -9 -21 -10 -8 -12 -12 -6 -8 8 4 11 1 7 -8 -4
-10 -13 -6 -37 17 -62 59 -87 76 -112 74 -19 -2 -25 -8 -25 -25 0 -21 -2 -22
-20 -11 -13 8 -19 20 -16 31 2 10 -2 17 -11 17 -19 0 -10 -49 13 -66 7 -6 14
-23 14 -38 0 -16 5 -26 15 -26 8 0 15 -8 14 -17 0 -11 -3 -13 -6 -5 -2 6 -13
12 -24 12 -14 0 -19 7 -19 30 0 19 -5 30 -14 30 -18 0 -30 35 -20 52 6 10 4
10 -8 0 -13 -10 -18 -10 -24 -1 -4 7 -2 15 4 17 18 6 14 20 -6 25 -14 4 -14 5
3 6 14 1 16 4 7 9 -19 12 -24 52 -6 52 8 0 14 7 14 15 0 13 -4 14 -21 4 -17
-8 -23 -8 -29 1 -4 7 -13 9 -19 5 -8 -5 -9 -11 -2 -19 6 -7 8 -16 4 -19 -13
-13 -33 44 -23 64 6 10 14 18 18 18 4 -1 16 -1 27 0 15 1 17 3 6 10 -11 7 -11
9 0 14 8 3 5 6 -8 6 -12 1 -23 -5 -26 -11 -2 -7 -8 -10 -12 -6 -3 3 3 20 16
37 23 31 37 28 52 -11 3 -10 12 -18 19 -17 10 0 10 2 1 6 -7 2 -13 11 -13 18
0 8 -7 21 -16 30 -13 12 -14 19 -5 28 9 9 14 8 21 -3 7 -11 9 -10 7 8 -1 25
-34 31 -39 7 -2 -12 -12 -8 -43 17 -21 18 -41 32 -42 31 -12 -11 -11 0 1 13 9
9 16 32 16 55 0 32 -3 39 -20 39 -11 0 -20 6 -20 13 0 7 -3 8 -8 2 -4 -5 -17
-11 -28 -12 -17 -2 -21 2 -17 16 3 10 0 21 -5 25 -5 3 -10 0 -9 -7 1 -36 -5
-45 -33 -49 -21 -3 -27 -1 -20 6 22 22 11 41 -26 43 -29 1 -38 -3 -53 -27 -12
-21 -21 -26 -31 -19 -13 7 -12 9 3 9 9 0 17 5 17 10 0 6 -7 10 -16 10 -9 0
-14 6 -11 13 2 6 10 11 16 9 15 -3 14 7 -3 23 -10 10 -16 11 -25 2 -8 -8 -11
-6 -11 9 0 14 -2 16 -9 5 -5 -7 -6 -22 -4 -32 3 -10 0 -19 -6 -19 -6 0 -12 10
-12 23 -1 18 -2 19 -6 3 -7 -26 12 -42 32 -26 13 11 15 8 15 -16 0 -16 -4 -24
-8 -18 -4 6 -22 15 -41 19 -30 6 -33 5 -27 -10 5 -14 4 -15 -7 -7 -17 14 -57
4 -57 -14 0 -8 -7 -14 -15 -14 -12 0 -13 3 -3 19 9 15 8 22 -5 35 -8 9 -22 16
-31 16 -8 0 -17 8 -19 18 -3 9 -5 3 -6 -14 -1 -22 -7 -33 -20 -37 -14 -3 -18
-1 -14 9 3 8 10 14 17 14 6 0 5 4 -3 9 -10 7 -24 3 -42 -10 -34 -24 -36 -24
-36 5 0 16 6 26 20 30 12 3 18 8 15 12 -4 3 -16 3 -28 -1 -16 -5 -20 -13 -17
-26 4 -15 1 -19 -13 -17 -11 2 -19 0 -20 -4 -1 -28 1 -30 15 -18 10 8 15 9 15
2 0 -6 10 -21 22 -33 l23 -21 -24 12 c-12 6 -32 10 -42 7 -13 -4 -19 0 -19 11
0 11 -9 18 -27 19 -20 1 -23 -1 -12 -9 10 -7 11 -11 2 -14 -7 -3 -9 -13 -6
-22 4 -12 0 -10 -14 5 -11 13 -23 19 -27 16 -4 -4 -11 -1 -16 7 -6 10 -10 4
-15 -21 -3 -19 -4 -640 -3 -1382 l3 -1347 38 25 c20 14 95 48 165 75 473 181
643 248 867 342 l130 54 32 59 c17 32 38 88 48 124 29 118 87 295 111 342 21
43 75 89 103 89 21 0 11 -21 -19 -38 -41 -24 -52 -58 -53 -159 0 -83 4 -100
67 -288 98 -290 108 -309 245 -446 126 -126 208 -195 218 -185 3 3 -1 14 -10
24 -10 10 -17 24 -17 31 0 7 -13 30 -29 50 -35 44 -50 91 -30 92 8 0 5 4 -6 8
-27 11 -70 91 -49 91 7 0 14 4 14 9 0 17 -12 41 -20 41 -12 0 -72 61 -66 67 3
3 15 -4 27 -16 32 -29 38 -26 34 15 -3 32 -24 73 -25 49 -1 -6 -7 5 -16 24 -8
19 -12 36 -10 39 3 2 21 -12 41 -32 36 -37 61 -47 52 -22 -4 10 0 12 14 9 22
-6 25 -19 7 -26 -17 -5 8 -37 28 -37 8 0 14 -7 14 -15 0 -8 7 -15 15 -15 8 0
15 -4 15 -9 0 -5 14 -14 30 -21 17 -7 30 -16 30 -21 0 -5 7 -9 15 -9 8 0 15
-5 15 -12 0 -6 3 -9 6 -5 4 3 -3 18 -15 33 -13 16 -18 31 -13 36 14 14 61 -2
68 -24 3 -11 19 -24 36 -30 23 -8 28 -15 25 -30 -5 -16 -2 -19 14 -15 10 3 19
1 19 -4 0 -5 11 -9 25 -9 14 0 25 -4 25 -10 0 -5 7 -7 15 -4 8 4 21 1 29 -5
11 -9 23 -6 52 11 22 12 41 26 42 30 2 4 12 8 23 8 10 0 19 4 19 10 0 5 -7 7
-15 4 -11 -4 -13 -2 -9 9 3 9 -2 17 -13 21 -14 4 -19 16 -19 41 0 19 4 35 9
35 5 0 7 6 4 14 -6 15 19 30 34 20 5 -3 9 0 9 5 0 6 -5 11 -12 11 -6 0 -4 6 6
13 9 7 17 17 15 22 -3 18 25 75 37 75 7 0 17 14 23 30 6 19 17 30 29 30 10 0
31 17 46 37 16 21 43 47 60 58 17 11 35 30 41 43 5 12 13 22 17 22 13 0 93 75
93 87 0 6 -4 15 -8 20 -5 4 -8 4 -7 -2 5 -22 -1 -35 -16 -35 -8 0 -13 -3 -10
-8 2 -4 -9 -15 -26 -25 -29 -17 -30 -17 -24 0 4 11 -1 8 -14 -7 l-20 -25 0 23
c0 20 -11 27 -35 22 -44 -10 -113 -15 -109 -8 3 4 0 8 -5 8 -6 0 -11 -5 -11
-11 0 -5 -4 -8 -9 -4 -5 3 -12 1 -16 -5 -7 -11 -83 -3 -102 12 -7 5 -13 5 -17
0 -3 -5 -27 -7 -52 -4 -38 4 -45 2 -39 -9 5 -8 -1 -6 -13 4 -11 11 -26 16 -32
12 -6 -3 -9 -1 -8 6 2 6 -3 14 -11 17 -8 3 -11 0 -7 -7 10 -15 -7 -14 -22 1
-10 10 -14 10 -20 1 -6 -9 -16 -5 -38 15 -25 23 -33 25 -43 15 -8 -9 -8 -13
-1 -13 6 0 8 -5 4 -11 -3 -6 -14 -9 -24 -6 -11 3 -21 -2 -25 -11 -4 -12 -8
-13 -17 -4 -7 7 -20 12 -31 12 -10 0 -15 5 -12 10 3 6 2 10 -2 10 -19 0 -75
61 -69 76 3 8 1 12 -4 9 -5 -3 -24 2 -42 12 -18 9 -36 17 -40 18 -3 0 -9 3
-13 7 -4 4 -13 4 -20 2 -14 -6 -24 6 -30 33 -2 10 -6 25 -10 34 -10 27 18 41
64 30 38 -8 41 -7 41 13 1 19 2 19 13 4 10 -12 17 -14 31 -6 13 7 17 7 12 0
-3 -6 -2 -13 4 -17 13 -8 13 15 0 35 -7 11 -5 17 8 22 14 5 13 7 -5 7 -25 1
-31 16 -10 24 10 4 10 6 0 6 -7 1 -13 9 -13 19 0 12 -2 14 -8 4 -7 -9 -13 -8
-27 8 -10 11 -15 23 -12 27 9 9 -54 124 -64 117 -5 -3 -9 -17 -9 -32 l0 -27
-18 30 c-15 23 -16 34 -8 50 6 11 7 15 2 9 -10 -12 -46 12 -46 31 0 5 5 3 10
-5 5 -8 10 -10 10 -5 0 17 -39 70 -52 70 -15 1 -28 -15 -28 -34 0 -11 3 -11
17 0 15 12 16 12 8 -6 -9 -23 -9 -26 0 -113 6 -62 5 -63 -17 -60 -13 2 -26 8
-30 13 -4 6 -8 -1 -9 -15 l-1 -25 -9 27 c-6 15 -20 30 -31 34 -16 5 -18 8 -7
15 11 7 10 9 -4 9 -10 0 -15 5 -12 10 12 19 -38 110 -63 116 -24 7 -56 56 -44
68 3 4 0 11 -7 15 -12 8 -15 28 -10 71 2 25 -9 71 -22 86 -6 7 -9 21 -5 29 3
8 2 15 -2 15 -4 0 -7 33 -7 73 0 39 -3 75 -8 78 -4 3 -9 17 -10 30 -1 13 -6
34 -13 47 -13 26 -9 104 8 135 6 12 11 28 12 37 1 21 47 80 62 80 6 0 18 -9
25 -21 26 -38 106 -52 342 -56 l218 -5 -26 -24 c-14 -12 -25 -26 -25 -30 0
-11 92 5 116 21 38 25 84 101 113 188 38 113 57 146 86 153 62 15 91 -15 130
-136 10 -30 28 -76 41 -102 25 -50 86 -104 104 -93 8 5 4 12 -9 22 -34 23 -24
32 22 20 23 -6 124 -11 227 -10 165 0 194 3 265 24 l80 24 37 77 c34 71 40 77
73 84 22 4 41 2 47 -4 6 -6 14 -42 17 -81 8 -79 15 -93 36 -65 10 13 14 47 15
117 0 83 2 97 16 97 18 0 43 27 44 48 0 7 8 25 17 39 10 15 16 37 15 50 -2 13
1 23 7 23 6 0 7 11 1 29 -5 19 -4 33 3 40 7 7 13 35 13 64 2 52 5 76 20 131 6
27 8 43 14 121 2 29 2 29 9 5 6 -22 8 -20 25 23 10 26 21 45 26 42 5 -3 11 9
15 26 5 23 12 30 24 26 12 -3 17 1 16 14 -1 10 -4 22 -8 25 -4 4 -7 19 -7 34
0 15 -14 54 -31 86 -24 45 -33 75 -35 124 -6 109 -11 150 -22 163 -5 6 -19 42
-31 79 -13 37 -27 70 -32 74 -5 3 -6 10 -3 16 4 6 3 8 -3 5 -6 -4 -24 22 -42
56 -40 79 -48 92 -93 148 -21 26 -38 51 -38 57 0 5 -25 35 -55 67 -30 32 -55
64 -55 71 0 18 -30 45 -41 38 -6 -3 -21 1 -34 10 -13 9 -31 16 -40 16 -9 0
-13 5 -10 10 3 6 -5 10 -19 10 -14 0 -28 5 -31 10 -3 6 -17 10 -31 10 -13 0
-33 9 -44 20 -11 11 -23 20 -27 20 -17 0 -109 66 -154 110 -26 25 -62 51 -80
57 -19 6 -72 25 -118 42 -46 17 -97 31 -112 31 -38 0 -167 19 -202 30 -24 8
-28 6 -23 -7z m-744 -339 c0 -2 -7 -4 -15 -4 -8 0 -15 4 -15 10 0 5 7 7 15 4
8 -4 15 -8 15 -10z m-270 -384 c0 -5 -2 -10 -4 -10 -3 0 -8 5 -11 10 -3 6 -1
10 4 10 6 0 11 -4 11 -10z m802 -162 c8 -7 24 -22 37 -33 l24 -20 -18 28 c-9
15 -14 27 -11 27 5 0 44 -22 65 -37 2 -1 -1 -9 -8 -17 -10 -12 -6 -13 30 -5
24 6 52 9 63 7 12 -1 27 2 35 7 10 5 16 4 19 -3 2 -7 13 -10 28 -6 14 4 24 2
24 -4 0 -7 10 -7 29 1 17 6 28 14 26 18 -3 3 6 4 19 2 13 -3 27 0 30 6 11 17
31 13 60 -14 16 -15 26 -19 26 -11 0 8 11 14 25 14 14 0 25 -5 25 -10 0 -6 7
-8 15 -4 8 3 15 0 15 -7 0 -8 4 -6 10 3 8 12 10 12 10 1 0 -8 7 -11 20 -8 13
3 21 -1 25 -15 5 -15 10 -17 21 -7 11 9 22 8 48 -5 19 -9 38 -16 44 -16 5 0
15 -7 22 -15 7 -8 19 -15 27 -15 7 0 29 -16 49 -35 19 -19 37 -35 40 -35 17 0
67 -84 56 -94 -4 -4 0 -6 8 -4 11 2 14 -4 13 -22 -2 -21 -1 -23 8 -7 14 25 26
21 37 -12 6 -15 24 -43 41 -60 17 -18 29 -36 26 -42 -4 -5 -1 -9 4 -9 6 0 11
-9 11 -20 0 -11 4 -20 9 -20 5 0 13 -10 17 -22 4 -13 18 -37 31 -55 13 -17 20
-33 16 -35 -4 -3 -3 -4 3 -2 15 3 34 -39 34 -74 0 -15 6 -39 14 -53 7 -14 16
-43 20 -64 4 -21 25 -71 47 -111 30 -58 39 -85 39 -124 0 -59 0 -59 -109 -31
-65 18 -125 54 -101 63 5 2 2 18 -7 36 -9 18 -18 30 -21 27 -3 -3 -16 5 -29
17 -23 22 -34 13 -11 -10 9 -9 9 -12 0 -12 -6 0 -16 10 -23 21 -9 17 -13 19
-20 8 -6 -10 -9 -10 -9 -2 0 7 -6 10 -14 7 -8 -3 -17 0 -21 5 -3 6 -10 9 -15
6 -5 -3 -11 -1 -15 5 -3 5 -11 10 -16 10 -6 0 -7 -6 -3 -12 6 -10 4 -10 -8 0
-12 10 -17 10 -20 1 -3 -9 -9 -9 -26 0 -15 8 -28 9 -41 2 -10 -6 -21 -7 -25
-4 -4 4 -57 6 -118 5 -93 -2 -114 -6 -136 -22 -13 -11 -30 -20 -37 -20 -16 0
-47 -64 -40 -82 8 -22 -77 -60 -135 -61 -70 -1 -123 26 -144 73 -20 45 -78
100 -106 100 -13 0 -18 5 -14 15 4 8 2 15 -4 15 -5 0 -13 -7 -16 -16 -5 -13
-9 -14 -21 -4 -9 8 -62 13 -148 15 -73 1 -150 8 -170 14 -42 14 -104 1 -148
-30 -15 -10 -35 -19 -46 -19 -10 0 -14 4 -8 8 6 4 12 14 14 22 8 34 10 46 10
67 1 12 13 33 27 46 15 14 22 27 16 31 -6 3 -19 -9 -31 -27 -11 -17 -21 -27
-21 -22 0 6 14 30 30 54 17 25 29 52 28 60 -1 9 1 22 6 30 5 8 4 16 -1 20 -6
3 -9 14 -7 23 1 10 -2 20 -7 24 -5 3 -4 14 3 27 10 20 10 21 -5 8 -15 -12 -17
-10 -17 23 0 20 -4 36 -8 36 -5 0 -9 6 -10 13 -6 49 -10 60 -23 68 -11 7 -11
9 0 9 11 0 11 3 1 15 -6 8 -14 27 -16 42 -2 15 -6 43 -10 61 -15 77 46 181
103 174 12 -2 33 4 45 12 12 9 29 16 36 16 8 0 27 9 43 20 38 27 117 50 204
59 39 4 75 8 82 9 6 1 18 -4 25 -10z m-832 -128 c0 -5 -5 -10 -11 -10 -5 0 -7
5 -4 10 3 6 8 10 11 10 2 0 4 -4 4 -10z m2026 -482 l16 -33 -36 38 c-20 20
-36 44 -36 52 0 21 34 -14 56 -57z m-1713 -195 c-5 -12 -3 -14 7 -8 8 5 11 3
8 -5 -7 -22 -25 -22 -31 -1 -5 20 0 31 14 31 5 0 5 -7 2 -17z m-1124 -52 c-3
-6 -10 -7 -18 -2 -7 5 -10 14 -6 21 9 14 29 -2 24 -19z m295 12 c-5 -5 -12
-12 -16 -18 -4 -6 -8 -2 -8 8 0 9 7 17 17 17 9 0 12 -3 7 -7z m-341 -37 c4
-10 1 -13 -9 -9 -15 6 -19 23 -5 23 5 0 11 -7 14 -14z m317 4 c13 -8 13 -10
-2 -10 -9 0 -20 5 -23 10 -8 13 5 13 25 0z m180 -26 c0 -20 -7 -17 -20 6 -9
16 -8 18 5 14 8 -4 15 -12 15 -20z m-736 1 c-4 -8 -10 -15 -15 -15 -5 0 -9 7
-9 15 0 8 7 15 15 15 9 0 12 -6 9 -15z m638 8 c-6 -2 -10 -9 -6 -14 3 -5 -2
-9 -12 -9 -13 0 -14 3 -4 15 7 8 18 15 24 14 7 0 6 -2 -2 -6z m-537 -13 c3 -5
1 -10 -4 -10 -6 0 -11 5 -11 10 0 6 2 10 4 10 3 0 8 -4 11 -10z m-65 -46 c0
-18 -6 -18 -30 3 -14 12 -16 19 -8 24 15 9 38 -8 38 -27z m685 16 c3 -5 1 -10
-4 -10 -6 0 -11 5 -11 10 0 6 2 10 4 10 3 0 8 -4 11 -10z m-45 -60 c0 -5 -4
-10 -10 -10 -5 0 -10 5 -10 10 0 6 5 10 10 10 6 0 10 -4 10 -10z m642 -22
c-19 -19 -14 -38 10 -38 28 0 15 -14 -33 -34 -53 -22 -68 -8 -44 43 16 37 26
46 48 42 4 0 7 4 7 11 0 9 3 9 12 0 9 -9 9 -15 0 -24z m-519 -23 c-3 -8 -16
-15 -28 -15 -13 0 -26 -6 -28 -12 -4 -10 -6 -10 -6 0 -1 7 12 18 29 23 17 6
27 16 23 22 -3 6 -1 7 5 3 6 -4 9 -13 5 -21z m-293 -5 c0 -5 -5 -10 -11 -10
-5 0 -7 5 -4 10 3 6 8 10 11 10 2 0 4 -4 4 -10z m90 -10 c-9 -6 -8 -9 6 -13
16 -4 16 -5 -3 -6 -13 0 -23 5 -23 12 0 18 11 28 22 20 6 -3 5 -9 -2 -13z
m1357 -16 c24 -7 21 -34 -5 -34 -15 0 -100 23 -152 41 -28 10 120 3 157 -7z
m964 -13 c33 -20 38 -20 53 -6 35 35 106 -18 106 -79 0 -21 -3 -27 -9 -18 -6
11 -10 10 -15 -3 -3 -9 -12 -15 -20 -12 -8 3 -23 -1 -34 -9 -20 -13 -23 -12
-39 13 -27 44 -94 102 -131 114 -19 6 -66 15 -106 20 -63 7 -58 7 44 5 97 -3
121 -7 151 -25z m-2466 -10 c-3 -6 -11 -11 -17 -11 -6 0 -6 6 2 15 14 17 26
13 15 -4z m226 -18 c-10 -17 -10 -16 -11 3 0 23 13 41 18 25 2 -6 -1 -18 -7
-28z m-171 18 c0 -12 -20 -25 -27 -18 -7 7 6 27 18 27 5 0 9 -4 9 -9z m246
-33 c-3 -13 -6 -29 -6 -35 0 -7 -4 -13 -9 -13 -5 0 -7 9 -4 20 4 16 2 19 -11
14 -10 -4 -16 -1 -16 9 0 16 14 25 39 26 9 1 11 -6 7 -21z m1676 -20 c-4 -30
24 -69 44 -61 8 3 14 0 14 -7 0 -7 6 -10 14 -7 13 5 25 -10 32 -41 7 -34 19
-41 111 -61 142 -32 151 -34 133 -21 -12 8 -10 10 10 10 33 0 15 14 -40 29
-46 14 -94 44 -84 54 3 3 -4 3 -15 0 -24 -6 -111 15 -111 27 0 13 88 20 116
10 47 -18 103 -12 127 14 l22 24 31 -27 c17 -14 34 -35 38 -47 4 -13 21 -25
45 -32 53 -16 68 -15 100 9 16 12 34 19 39 15 6 -3 13 0 16 6 3 7 4 -12 1 -42
-12 -117 -68 -142 -315 -143 l-165 -1 130 -6 130 -6 -130 -2 c-146 -2 -245 16
-282 50 -32 30 -64 121 -70 202 -6 62 -4 69 10 63 11 -4 17 -1 17 9 0 9 7 14
18 12 12 -2 16 -11 14 -30z m-2031 -31 c-10 -9 -11 -8 -5 6 3 10 9 15 12 12 3
-3 0 -11 -7 -18z m1464 -27 c-2 -4 16 -11 40 -17 42 -10 44 -9 47 14 l3 24 33
-29 c19 -17 33 -33 32 -36 -6 -23 9 -30 27 -13 26 22 34 13 21 -24 -6 -16 -8
-38 -5 -49 3 -11 -4 -34 -17 -52 -25 -38 -98 -68 -161 -66 -22 0 -29 2 -15 4
62 9 130 26 134 33 3 4 -17 2 -45 -5 -77 -20 -443 -21 -491 -1 -39 16 -68 60
-67 99 0 22 1 22 8 3 11 -27 72 -86 82 -79 5 3 18 0 29 -6 16 -9 20 -8 21 7 1
10 2 25 3 33 1 12 20 15 106 16 108 0 194 19 224 49 8 8 19 15 25 15 6 0 11 4
11 9 0 14 -102 24 -130 12 -14 -5 -19 -10 -12 -10 7 -1 10 -6 7 -12 -4 -6 -14
-8 -22 -5 -8 3 -11 1 -8 -4 3 -6 0 -10 -8 -10 -8 0 -27 -3 -43 -6 -23 -4 -32
0 -42 16 -8 12 -9 19 -3 16 5 -4 12 -2 16 4 3 5 17 7 30 4 12 -3 25 -2 28 4 6
8 -7 12 -47 13 -25 0 -60 19 -51 27 3 3 47 6 97 7 83 0 92 2 106 23 11 17 18
20 28 11 8 -6 12 -15 9 -19z m-1111 5 c-4 -8 -8 -15 -10 -15 -2 0 -4 7 -4 15
0 8 4 15 10 15 5 0 7 -7 4 -15z m643 -62 c-2 -16 -4 -3 -4 27 0 30 2 43 4 28
2 -16 2 -40 0 -55z m-679 14 c-2 -39 -11 -56 -30 -57 -5 0 -8 10 -7 23 0 21 1
21 10 2 8 -17 8 -15 4 8 -6 32 4 79 16 72 4 -3 7 -25 7 -48z m-183 16 c-2 -16
-4 -29 -4 -30 -1 -1 -16 3 -33 9 l-32 12 27 9 c15 5 27 13 27 18 0 5 4 9 9 9
5 0 8 -12 6 -27z m88 13 c9 0 17 -4 17 -9 0 -5 7 -7 15 -4 20 8 28 -9 12 -25
-8 -7 -12 -19 -9 -26 2 -6 -3 -15 -12 -18 -9 -3 -13 -11 -10 -18 3 -6 -6 3
-20 19 -14 17 -24 36 -21 43 3 7 -5 12 -21 12 -14 0 -23 4 -20 9 3 5 16 7 29
4 22 -4 22 -4 2 13 l-20 17 20 -8 c11 -4 28 -8 38 -9z m2404 -18 c-3 -8 -6 -5
-6 6 -1 11 2 17 5 13 3 -3 4 -12 1 -19z m-2537 -38 c0 -5 13 -5 29 0 33 9 47
-6 29 -31 -8 -11 -8 -9 -4 6 6 20 6 20 -9 1 -8 -11 -15 -14 -15 -8 0 7 -13 12
-28 12 -20 0 -28 5 -28 19 0 11 5 17 13 14 7 -3 13 -9 13 -13z m300 6 c0 -2
-7 -6 -15 -10 -8 -3 -15 -1 -15 4 0 6 7 10 15 10 8 0 15 -2 15 -4z m-340 -56
c0 -5 -5 -10 -11 -10 -5 0 -7 5 -4 10 3 6 8 10 11 10 2 0 4 -4 4 -10z m254
-15 c3 -8 1 -15 -4 -15 -6 0 -10 7 -10 15 0 8 2 15 4 15 2 0 6 -7 10 -15z
m141 -23 c15 -8 16 -11 5 -12 -18 0 -40 19 -40 35 0 7 3 6 8 -1 4 -6 16 -16
27 -22z m-91 -23 c-3 -5 -18 -9 -34 -9 -22 0 -28 4 -24 15 4 8 12 15 20 15 8
0 14 6 14 13 1 7 7 4 15 -7 8 -10 12 -23 9 -27z m479 24 c-7 -2 -13 -14 -14
-26 0 -12 -3 -16 -6 -9 -7 18 4 42 19 41 10 0 10 -2 1 -6z m-102 -92 c3 -38
-6 -104 -15 -119 -8 -13 23 -72 38 -72 8 0 19 12 24 28 l10 27 22 -50 c23 -54
40 -129 40 -181 0 -18 5 -34 11 -36 6 -2 13 -34 16 -71 5 -63 4 -67 -15 -67
-11 0 -24 5 -27 10 -4 6 -11 8 -16 5 -5 -4 -9 -2 -9 3 0 6 -8 8 -18 5 -10 -2
-23 2 -28 9 -18 23 -74 161 -95 233 -51 174 -63 247 -29 185 l19 -35 1 31 c0
17 3 51 6 76 6 42 8 44 35 40 18 -3 29 -11 30 -21z m476 3 c-3 -3 -12 -4 -19
-1 -8 3 -5 6 6 6 11 1 17 -2 13 -5z m196 -11 c-23 -2 -64 -2 -90 0 -26 2 -7 3
42 3 50 0 71 -1 48 -3z m-781 -205 c-7 -7 -12 -8 -12 -2 0 14 12 26 19 19 2
-3 -1 -11 -7 -17z m569 -763 c5 4 9 -1 9 -9 0 -10 -6 -13 -15 -10 -8 4 -14 16
-14 28 1 17 2 17 6 3 2 -9 9 -15 14 -12z m39 -196 c0 -4 24 -21 53 -37 46 -27
121 -92 104 -92 -8 0 -215 149 -222 159 -2 5 11 1 30 -7 19 -9 35 -19 35 -23z
m-44 -196 c-3 -7 -1 -15 4 -18 5 -3 11 5 13 17 4 21 4 21 6 -3 1 -30 41 -53
74 -43 18 6 19 3 13 -22 -4 -16 -12 -31 -17 -35 -5 -3 -7 -14 -3 -25 11 -31
-52 33 -66 67 -7 16 -18 29 -24 29 -7 0 -17 15 -24 33 -17 47 -15 53 8 32 12
-10 18 -25 16 -32z m24 -91 c34 -52 37 -62 14 -62 -14 0 -14 -3 -4 -15 7 -8 8
-15 3 -15 -8 0 -39 55 -80 142 -2 3 6 4 17 1 11 -3 33 -26 50 -51z m128 -32
c13 0 23 -26 16 -45 -4 -8 -2 -15 4 -15 5 0 12 -9 15 -20 3 -11 1 -18 -4 -14
-5 3 -9 0 -9 -7 0 -8 -4 -8 -15 1 -8 7 -15 21 -15 32 0 10 -5 16 -10 13 -6 -3
-17 0 -25 8 -12 12 -12 20 -2 46 10 27 13 29 23 16 6 -8 16 -15 22 -15z m-68
-55 c0 -8 -2 -15 -4 -15 -2 0 -6 7 -10 15 -3 8 -1 15 4 15 6 0 10 -7 10 -15z
m41 -68 c12 -22 12 -22 -10 -3 -11 11 -21 23 -21 28 0 14 19 -1 31 -25z m2
-118 c-12 -13 -26 -18 -33 -14 -9 5 -4 12 16 21 40 17 41 17 17 -7z"/>
<path d="M638 2433 c6 -2 10 -9 6 -14 -3 -5 0 -9 5 -9 6 0 11 -8 12 -17 1 -12
4 -9 8 7 10 32 5 40 -22 39 -12 0 -16 -3 -9 -6z"/>
<path d="M1235 1910 c-3 -5 -2 -10 4 -10 5 0 13 5 16 10 3 6 2 10 -4 10 -5 0
-13 -4 -16 -10z"/>
<path d="M1140 1892 c0 -10 43 -52 53 -52 16 0 5 20 -23 40 -16 12 -30 17 -30
12z"/>
<path d="M1601 4434 c0 -11 3 -14 6 -6 3 7 2 16 -1 19 -3 4 -6 -2 -5 -13z"/>
<path d="M1495 4390 c10 -11 20 -20 23 -20 3 0 -3 9 -13 20 -10 11 -20 20 -23
20 -3 0 3 -9 13 -20z"/>
<path d="M1542 4380 c0 -14 2 -19 5 -12 2 6 2 18 0 25 -3 6 -5 1 -5 -13z"/>
<path d="M1104 3866 c-10 -8 -16 -17 -13 -20 3 -3 14 3 24 14 21 23 17 26 -11
6z"/>
<path d="M480 2930 c0 -5 5 -10 10 -10 6 0 10 5 10 10 0 6 -4 10 -10 10 -5 0
-10 -4 -10 -10z"/>
<path d="M321 2909 c0 -15 7 -33 17 -40 15 -12 16 -12 5 1 -6 8 -13 26 -16 40
l-4 25 -2 -26z"/>
<path d="M126 2903 c-6 -14 -5 -15 5 -6 7 7 10 15 7 18 -3 3 -9 -2 -12 -12z"/>
<path d="M790 2769 c0 -5 11 -9 25 -9 14 0 25 2 25 4 0 2 -11 6 -25 8 -14 3
-25 1 -25 -3z"/>
<path d="M900 2605 c0 -9 9 -15 21 -15 18 0 19 2 9 15 -7 8 -16 15 -21 15 -5
0 -9 -7 -9 -15z"/>
<path d="M935 2551 c-3 -5 -1 -12 5 -16 5 -3 10 1 10 9 0 18 -6 21 -15 7z"/>
<path d="M897 2469 c-20 -12 -23 -29 -3 -29 17 0 40 26 29 33 -5 3 -16 1 -26
-4z"/>
<path d="M994 2435 c-9 -14 -15 -27 -13 -30 3 -2 12 10 21 26 21 36 15 39 -8
4z"/>
<path d="M910 2430 c0 -12 17 -12 45 0 17 7 15 9 -12 9 -18 1 -33 -3 -33 -9z"/>
<path d="M3412 2365 c-29 -33 -30 -36 -17 -62 8 -16 15 -41 16 -58 0 -25 2
-27 8 -10 5 11 12 40 16 65 4 24 14 49 21 55 11 8 11 13 0 28 -13 16 -16 15
-44 -18z"/>
<path d="M1875 2130 c-3 -5 -1 -10 4 -10 6 0 11 5 11 10 0 6 -2 10 -4 10 -3 0
-8 -4 -11 -10z"/>
<path d="M2535 2105 c5 -11 11 -42 13 -70 3 -36 11 -56 28 -72 13 -12 47 -57
74 -100 37 -58 50 -72 50 -54 0 17 4 22 15 17 12 -4 13 -2 6 13 -6 10 -8 21
-5 23 12 13 -129 224 -166 247 -23 15 -24 15 -15 -4z"/>
<path d="M3591 2094 c0 -11 3 -14 6 -6 3 7 2 16 -1 19 -3 4 -6 -2 -5 -13z"/>
<path d="M3620 2068 c-20 -7 -22 -11 -10 -18 10 -7 18 -5 26 5 8 11 13 12 22
3 16 -16 15 -28 -3 -28 -8 0 -15 -6 -15 -14 0 -8 -5 -18 -10 -21 -16 -10 -49
5 -44 20 3 7 1 16 -5 20 -7 4 -11 -5 -11 -24 0 -16 -2 -35 -3 -43 -2 -7 -2
-10 0 -5 9 14 30 6 41 -15 7 -15 11 -17 11 -8 1 13 3 13 11 0 7 -12 12 -12 29
4 21 19 21 19 22 -5 0 -13 3 -18 6 -11 2 6 12 12 20 12 11 0 14 6 9 23 -4 12
-8 29 -9 37 -1 8 -8 21 -15 28 -15 16 -6 35 14 28 7 -3 16 -2 18 3 3 4 0 8 -7
9 -7 0 -25 3 -42 5 -16 3 -41 0 -55 -5z"/>
<path d="M3836 2061 c-3 -5 1 -11 9 -14 9 -4 12 -1 8 9 -6 16 -10 17 -17 5z"/>
<path d="M1943 2038 c-37 -48 -83 -120 -83 -132 0 -8 -4 -17 -9 -20 -5 -3 -7
-15 -4 -27 6 -20 6 -20 27 -1 11 11 36 22 54 24 30 4 37 1 59 -34 14 -21 29
-38 32 -38 4 0 16 -8 27 -18 13 -13 43 -21 89 -26 38 -4 72 -11 75 -16 3 -5
19 -9 35 -8 17 1 37 -2 46 -6 12 -5 23 2 39 29 12 20 27 34 34 32 6 -2 17 2
24 10 7 7 24 13 37 13 18 0 23 4 19 15 -4 8 -1 15 6 15 14 0 50 42 44 51 -6
11 -72 -7 -100 -27 -64 -46 -81 -54 -110 -54 -18 0 -47 12 -72 29 -36 27 -46
29 -95 24 -108 -11 -156 27 -160 127 -1 28 -3 50 -3 50 -1 0 -6 -6 -11 -12z"/>
<path d="M3797 2034 c-4 -4 -7 -18 -7 -31 0 -14 -6 -23 -15 -23 -18 0 -18 5
-5 31 12 22 10 23 -25 7 -14 -6 -25 -16 -25 -22 0 -14 38 -38 49 -32 9 6 51
-39 51 -54 0 -6 5 -10 10 -10 6 0 10 5 10 10 0 6 21 10 48 10 31 0 42 3 33 9
-8 5 -11 16 -8 24 3 9 -1 18 -9 21 -7 3 -13 16 -11 28 1 17 -3 23 -20 24 -13
1 -23 -3 -23 -7 0 -5 9 -9 20 -9 18 0 19 -3 9 -22 -11 -20 -13 -20 -24 -5 -15
21 -25 22 -25 1 0 -24 -25 -11 -28 15 -3 16 1 21 12 19 8 -2 15 2 16 7 1 12
-23 19 -33 9z m98 -75 c-10 -15 -25 -10 -19 6 4 8 10 12 15 9 5 -3 7 -10 4
-15z"/>
<path d="M3425 2000 c-3 -5 -1 -10 4 -10 6 0 11 5 11 10 0 6 -2 10 -4 10 -3 0
-8 -4 -11 -10z"/>
<path d="M3514 1994 c3 -9 6 -19 6 -23 0 -4 7 -8 15 -8 18 0 18 7 1 30 -16 21
-30 22 -22 1z"/>
<path d="M3938 1993 c7 -3 16 -2 19 1 4 3 -2 6 -13 5 -11 0 -14 -3 -6 -6z"/>
<path d="M3737 1949 c7 -7 15 -10 18 -7 3 3 -2 9 -12 12 -14 6 -15 5 -6 -5z"/>
<path d="M3362 1880 c-12 -28 -18 -58 -15 -67 4 -10 2 -14 -4 -10 -12 8 -36
-50 -27 -64 3 -5 0 -9 -7 -9 -7 0 -9 -3 -6 -7 4 -3 -6 -16 -22 -27 -15 -12
-29 -25 -30 -31 -2 -5 -5 -12 -8 -15 -4 -3 -3 1 1 8 5 8 -2 12 -23 12 -18 0
-31 5 -31 13 -1 8 -4 7 -9 -3 -5 -8 -11 -49 -14 -90 -9 -104 -38 -207 -80
-283 l-37 -64 48 -18 c92 -33 235 -231 251 -347 5 -35 25 -86 59 -150 l53 -96
92 -40 c51 -22 103 -43 117 -47 14 -4 48 -18 75 -30 28 -12 104 -44 170 -70
66 -26 136 -56 155 -65 20 -10 62 -23 94 -29 32 -6 93 -26 135 -45 206 -92
284 -126 287 -126 2 0 4 277 4 616 0 530 -2 615 -14 611 -37 -14 -89 -19 -82
-8 4 7 0 11 -12 11 -16 0 -19 5 -15 23 3 12 2 19 -2 15 -4 -4 -8 -21 -7 -37 0
-17 -7 -35 -16 -42 -14 -11 -15 -11 -5 1 10 10 8 18 -10 36 -28 30 -38 30 -33
-1 3 -14 0 -25 -6 -25 -5 0 -8 7 -4 15 6 18 -5 20 -21 4 -8 -8 -13 -5 -18 10
-5 15 -13 21 -28 19 -17 -2 -22 2 -22 21 0 13 -7 26 -15 28 -13 4 -13 3 0 -7
12 -10 11 -11 -7 -7 -21 5 -22 4 -6 -22 11 -20 12 -22 0 -8 -16 20 -52 24 -41
5 4 -7 -2 -4 -14 6 -12 11 -22 16 -22 11 0 -4 -8 -1 -17 6 -10 8 -14 9 -10 2
4 -6 3 -14 -3 -18 -6 -3 -10 3 -10 15 0 17 4 20 20 15 24 -8 27 16 5 39 -9 9
-11 17 -5 21 5 3 10 1 10 -4 0 -6 10 -11 21 -11 17 0 20 4 15 23 -3 12 -6 29
-6 37 -1 8 -5 5 -11 -8 -9 -24 -44 -28 -44 -4 0 15 -18 17 -23 3 -2 -6 4 -14
12 -17 12 -5 14 -10 6 -19 -8 -9 -8 -15 0 -20 5 -3 10 -11 10 -18 0 -8 -3 -8
-12 1 -14 14 -48 16 -48 3 0 -5 6 -12 13 -14 6 -3 -4 -3 -23 0 -19 3 -38 11
-42 17 -5 7 -8 7 -8 1 0 -5 -5 -3 -10 5 -8 13 -10 12 -10 -2 0 -10 -4 -18 -9
-18 -9 0 -25 30 -23 42 1 4 -5 5 -13 2 -11 -4 -15 1 -16 17 -1 23 -1 23 -13
-4 -7 -15 -16 -24 -20 -20 -5 5 -6 1 -4 -7 6 -16 10 -16 43 -5 15 6 14 3 -5
-11 -41 -31 -52 -27 -48 15 3 34 1 37 -19 35 -15 -1 -20 2 -16 12 3 8 0 14 -6
14 -6 0 -11 -9 -11 -20 0 -11 -4 -20 -10 -20 -5 0 -10 3 -10 8 0 4 -19 8 -42
9 -25 1 -36 -2 -28 -7 15 -9 22 -38 15 -59 -4 -10 -8 -11 -20 -1 -7 6 -11 18
-8 26 3 7 -2 17 -11 20 -20 8 -3 44 22 45 14 0 14 2 2 6 -8 4 -21 13 -28 22
-11 14 -12 13 -7 -6 7 -24 -10 -33 -18 -10 -3 9 -9 9 -26 -1 -19 -11 -21 -10
-22 10 0 22 -1 22 -8 3 -6 -15 -2 -26 15 -42 15 -14 19 -23 11 -26 -6 -2 -20
5 -31 14 -10 10 -23 16 -28 13 -4 -3 -8 2 -8 10 0 21 -34 38 -48 24 -7 -7 -17
-4 -33 11 -19 17 -20 21 -6 21 9 0 17 5 17 11 0 5 5 7 10 4 6 -3 10 2 11 12 0
10 2 30 4 46 2 15 0 25 -6 22 -5 -4 -9 -19 -9 -36 0 -20 -5 -29 -16 -29 -11 0
-14 6 -9 21 6 19 4 20 -24 14 -20 -4 -31 -3 -31 4 0 7 -11 9 -25 7 -14 -3 -25
0 -25 5 0 5 -5 9 -11 9 -5 0 -7 -4 -4 -10 3 -6 -1 -7 -9 -4 -9 3 -16 1 -16 -5
0 -6 5 -11 10 -11 6 0 10 -9 10 -20 0 -11 -4 -20 -10 -20 -5 0 -10 7 -10 15 0
8 -7 15 -15 15 -16 0 -19 9 -9 34 3 8 12 12 20 9 8 -3 14 -1 14 3 0 15 -14 31
-30 36 -30 10 -13 88 19 88 6 0 11 12 11 26 0 14 4 23 10 19 6 -3 10 -1 10 5
0 7 -8 9 -20 5 -15 -5 -18 -3 -14 9 3 9 4 16 1 16 -2 0 -14 -23 -25 -50z m28
-4 c0 -8 -6 -16 -14 -19 -10 -4 -12 0 -9 14 6 22 23 26 23 5z m-30 -136 c0 -5
-5 -10 -11 -10 -5 0 -7 5 -4 10 3 6 8 10 11 10 2 0 4 -4 4 -10z m-45 -60 c3
-5 1 -10 -4 -10 -6 0 -11 5 -11 10 0 6 2 10 4 10 3 0 8 -4 11 -10z m145 -10
c10 -19 10 -20 -9 -8 -22 13 -28 28 -11 28 5 0 14 -9 20 -20z m-98 -22 c-7 -7
-12 -8 -12 -2 0 14 12 26 19 19 2 -3 -1 -11 -7 -17z m98 -24 c0 -8 -4 -12 -10
-9 -5 3 -10 13 -10 21 0 8 5 12 10 9 6 -3 10 -13 10 -21z m420 -94 c0 -27 -23
-46 -50 -42 -29 4 -51 42 -24 42 8 0 13 -3 13 -7 -3 -21 3 -21 21 -3 22 22 40
26 40 10z m20 -50 c0 -5 -7 -10 -16 -10 -8 0 -12 5 -9 10 3 6 10 10 16 10 5 0
9 -4 9 -10z m110 -22 c-21 -23 -22 -23 -36 -3 -14 19 -13 20 18 25 43 8 44 6
18 -22z m40 -7 c0 -5 -7 -11 -15 -15 -15 -5 -20 5 -8 17 9 10 23 9 23 -2z
m-190 -11 c0 -5 -5 -10 -11 -10 -5 0 -7 5 -4 10 3 6 8 10 11 10 2 0 4 -4 4
-10z m334 -6 c21 -8 20 -28 0 -45 -15 -12 -16 -11 -9 10 5 16 3 26 -6 32 -16
10 -8 12 15 3z m64 -43 c3 -8 -1 -12 -9 -9 -7 2 -15 10 -17 17 -3 8 1 12 9 9
7 -2 15 -10 17 -17z m292 -16 c10 -12 10 -15 -4 -15 -9 0 -16 7 -16 15 0 8 2
15 4 15 2 0 9 -7 16 -15z m-153 -42 c3 -7 -3 -9 -16 -6 -12 3 -21 10 -21 15 0
13 32 6 37 -9z m167 -21 c2 -4 -4 -13 -15 -20 -15 -10 -19 -10 -19 1 0 24 23
36 34 19z m-50 -11 c4 -5 -1 -8 -9 -7 -21 3 -31 16 -12 16 9 0 18 -4 21 -9z"/>
<path d="M3770 1921 c0 -6 5 -13 10 -16 6 -3 10 1 10 9 0 9 -4 16 -10 16 -5 0
-10 -4 -10 -9z"/>
<path d="M1364 1898 c-4 -15 -1 -25 10 -34 10 -6 18 -22 19 -34 1 -20 2 -20
15 -3 11 15 10 20 -4 30 -9 7 -14 18 -12 25 3 7 0 19 -8 25 -10 10 -14 8 -20
-9z"/>
<path d="M4520 1892 c0 -5 7 -13 16 -16 10 -4 14 -1 12 6 -5 15 -28 23 -28 10z"/>
<path d="M3467 1846 c-4 -10 -1 -13 8 -9 8 3 12 9 9 14 -7 12 -11 11 -17 -5z"/>
<path d="M3406 1745 c4 -8 8 -15 10 -15 2 0 4 7 4 15 0 8 -4 15 -10 15 -5 0
-7 -7 -4 -15z"/>
<path d="M1843 1653 c-13 -9 -23 -23 -23 -33 0 -10 -6 -23 -14 -29 -13 -11
-12 -17 2 -50 19 -41 46 -73 55 -64 8 7 97 -29 97 -39 0 -5 7 -8 15 -8 8 0 15
7 15 15 0 8 8 15 19 15 32 0 81 22 81 36 0 13 7 16 26 13 4 0 11 5 16 13 7 9
8 5 5 -14 -3 -20 0 -28 11 -28 9 0 13 7 9 19 -7 28 6 41 49 52 29 6 41 5 48
-4 6 -10 16 -6 38 15 34 32 50 35 68 13 10 -12 16 -13 26 -4 17 14 44 -5 44
-31 0 -13 6 -17 20 -13 11 3 20 0 20 -6 0 -20 66 -12 125 15 60 28 75 25 78
-15 1 -14 6 -20 15 -16 7 3 16 5 18 5 9 0 3 70 -8 97 -6 15 -11 31 -10 34 1 3
-10 12 -25 20 -23 13 -27 12 -47 -14 -19 -24 -27 -27 -52 -21 -16 4 -38 13
-49 20 -20 12 -37 12 -310 1 -95 -4 -215 -27 -237 -44 -7 -6 -26 -13 -41 -17
-26 -6 -28 -5 -25 21 2 15 8 32 13 36 6 5 4 7 -5 4 -8 -2 -22 1 -30 8 -12 11
-19 10 -37 -2z"/>
<path d="M4140 1650 c0 -5 9 -10 20 -10 11 0 20 5 20 10 0 6 -9 10 -20 10 -11
0 -20 -4 -20 -10z"/>
<path d="M3597 1619 c7 -7 15 -10 18 -7 3 3 -2 9 -12 12 -14 6 -15 5 -6 -5z"/>
<path d="M4100 1614 c0 -8 5 -12 10 -9 6 4 8 11 5 16 -9 14 -15 11 -15 -7z"/>
<path d="M4245 1590 c3 -5 8 -10 11 -10 2 0 4 5 4 10 0 6 -5 10 -11 10 -5 0
-7 -4 -4 -10z"/>
<path d="M4266 1555 c-3 -8 -1 -15 4 -15 6 0 10 7 10 15 0 8 -2 15 -4 15 -2 0
-6 -7 -10 -15z"/>
<path d="M4046 1545 c-3 -9 -2 -13 3 -10 5 3 12 1 16 -5 3 -5 21 -10 38 -9
l32 1 -28 8 c-16 5 -34 14 -41 20 -10 8 -15 7 -20 -5z"/>
<path d="M4305 1550 c-3 -5 1 -10 10 -10 9 0 13 5 10 10 -3 6 -8 10 -10 10 -2
0 -7 -4 -10 -10z"/>
<path d="M4272 1518 c3 -7 13 -15 23 -17 17 -3 17 -2 3 13 -20 19 -31 21 -26
4z"/>
<path d="M4200 1500 c0 -5 5 -10 10 -10 6 0 10 5 10 10 0 6 -4 10 -10 10 -5 0
-10 -4 -10 -10z"/>
<path d="M4330 1500 c-9 -6 -10 -10 -3 -10 6 0 15 5 18 10 8 12 4 12 -15 0z"/>
<path d="M4411 1484 c0 -11 3 -14 6 -6 3 7 2 16 -1 19 -3 4 -6 -2 -5 -13z"/>
<path d="M2237 1479 c8 -8 16 -8 30 0 16 9 14 10 -11 11 -22 0 -27 -3 -19 -11z"/>
<path d="M4360 1460 c20 -13 33 -13 25 0 -3 6 -14 10 -23 10 -15 0 -15 -2 -2
-10z"/>
<path d="M4520 1450 c0 -5 5 -10 10 -10 6 0 10 5 10 10 0 6 -4 10 -10 10 -5 0
-10 -4 -10 -10z"/>
<path d="M2140 1315 c22 -26 3 -31 -72 -19 -45 7 -51 -8 -13 -38 14 -11 25
-25 25 -33 0 -8 7 -11 20 -8 11 3 20 9 20 14 0 5 11 4 25 -3 13 -6 22 -14 20
-18 -4 -7 -4 -7 73 -12 49 -4 52 -3 52 19 0 15 10 30 29 41 20 12 27 22 22 31
-7 11 -11 9 -20 -5 -6 -11 -11 -17 -11 -14 -7 32 -7 40 3 40 5 0 7 3 4 6 -4 4
-48 9 -98 11 -82 3 -91 2 -79 -12z m66 -29 c17 -17 19 -39 2 -34 -11 4 -32 48
-22 48 3 0 12 -6 20 -14z"/>
<path d="M2000 1300 c0 -5 5 -10 11 -10 5 0 7 5 4 10 -3 6 -8 10 -11 10 -2 0
-4 -4 -4 -10z"/>
<path d="M2390 1270 c0 -5 5 -10 11 -10 5 0 7 5 4 10 -3 6 -8 10 -11 10 -2 0
-4 -4 -4 -10z"/>
<path d="M3026 1204 c-10 -27 -7 -35 25 -65 l31 -29 -28 0 c-23 0 -26 -2 -14
-10 13 -8 11 -11 -7 -16 -28 -8 -29 -16 -3 -39 33 -30 27 -86 -15 -131 -41
-43 -45 -78 -12 -96 81 -46 177 -147 177 -187 0 -9 -7 -3 -16 14 -8 17 -23 37
-32 45 -14 14 -15 13 -3 -2 8 -10 10 -18 6 -18 -4 0 -1 -8 6 -17 10 -12 10
-15 1 -9 -7 4 -18 22 -26 39 -13 31 -72 97 -87 97 -4 0 6 -27 23 -60 33 -66
45 -179 20 -188 -6 -2 -12 -13 -12 -25 0 -18 -2 -19 -10 -7 -7 11 -10 6 -10
-22 0 -20 -5 -40 -11 -43 -6 -4 -8 -13 -5 -20 3 -8 0 -16 -7 -19 -9 -3 -9 -5
0 -5 8 -1 6 -13 -7 -39 -36 -70 -70 -146 -70 -156 0 -17 -34 -86 -42 -86 -4 0
-8 -7 -8 -15 0 -8 -5 -15 -12 -15 -6 0 -8 -3 -5 -7 4 -3 17 3 30 14 12 11 36
25 53 32 17 7 45 27 62 44 37 39 185 324 178 343 -3 8 -2 14 3 14 5 0 17 26
27 58 22 69 25 221 6 365 -12 95 -14 101 -64 168 -28 38 -59 69 -68 69 -10 0
-29 9 -43 20 -22 17 -26 18 -31 4z m140 -650 c3 -16 2 -26 -1 -23 -3 4 -8 19
-11 35 -3 16 -2 26 1 23 3 -4 8 -19 11 -35z"/>
<path d="M2213 1183 c-15 -5 -17 -23 -4 -23 5 0 11 7 15 15 3 8 4 15 3 14 -1
0 -8 -3 -14 -6z"/>
<path d="M2075 960 c-3 -5 -1 -10 4 -10 6 0 11 5 11 10 0 6 -2 10 -4 10 -3 0
-8 -4 -11 -10z"/>
<path d="M1990 250 c0 -5 5 -10 11 -10 5 0 7 5 4 10 -3 6 -8 10 -11 10 -2 0
-4 -4 -4 -10z"/>
<path d="M2835 70 c-3 -5 -2 -10 4 -10 5 0 13 5 16 10 3 6 2 10 -4 10 -5 0
-13 -4 -16 -10z"/>
<path d="M1666 25 l-27 -25 78 0 78 0 -44 25 c-53 31 -52 31 -85 0z"/>
</g>
</svg>
